<svg width="800" height="600" viewBox="0 0 800 600" xmlns="http://www.w3.org/2000/svg">
  <!-- Background -->
  <rect width="800" height="600" fill="#ecf0f3" />
  
  <!-- Header -->
  <rect width="800" height="60" fill="#ecf0f3" filter="drop-shadow(0 2px 4px rgba(0,0,0,0.1))" />
  <g transform="translate(20, 30)">
    <circle cx="15" cy="0" r="15" fill="#4e7ede" />
    <text x="40" y="5" font-family="Arial" font-size="18" font-weight="bold" fill="#333">Batch Login</text>
  </g>
  <circle cx="760" cy="30" r="15" fill="#ecf0f3" stroke="#4e7ede" stroke-width="2" />
  
  <!-- Upload Card -->
  <g transform="translate(50, 100)">
    <rect width="700" height="150" rx="20" ry="20" fill="#ecf0f3" 
          filter="drop-shadow(8px 8px 12px rgba(0,0,0,0.1)) drop-shadow(-8px -8px 12px rgba(255,255,255,0.7))" />
    <text x="350" y="30" font-family="Arial" font-size="18" font-weight="bold" fill="#4e7ede" text-anchor="middle">Tải lên file Excel</text>
    
    <!-- Upload box -->
    <rect x="150" y="50" width="400" height="60" rx="10" ry="10" fill="#ecf0f3" 
          filter="inset(5px 5px 8px rgba(0,0,0,0.1)) inset(-5px -5px 8px rgba(255,255,255,0.7))" />
    <text x="350" y="85" font-family="Arial" font-size="14" fill="#999" text-anchor="middle">Chọn file Excel</text>
    
    <!-- Button -->
    <rect x="250" y="120" width="200" height="40" rx="20" ry="20" fill="#4e7ede" />
    <text x="350" y="145" font-family="Arial" font-size="14" fill="white" text-anchor="middle">Bắt đầu xử lý</text>
  </g>
  
  <!-- Progress Card -->
  <g transform="translate(50, 280)">
    <rect width="700" height="200" rx="20" ry="20" fill="#ecf0f3" 
          filter="drop-shadow(8px 8px 12px rgba(0,0,0,0.1)) drop-shadow(-8px -8px 12px rgba(255,255,255,0.7))" />
    <text x="350" y="30" font-family="Arial" font-size="18" font-weight="bold" fill="#4e7ede" text-anchor="middle">Tiến trình xử lý</text>
    
    <!-- Progress bar -->
    <rect x="50" y="50" width="600" height="20" rx="10" ry="10" fill="#ecf0f3" 
          filter="inset(2px 2px 4px rgba(0,0,0,0.1)) inset(-2px -2px 4px rgba(255,255,255,0.7))" />
    <rect x="50" y="50" width="300" height="20" rx="10" ry="10" fill="#4e7ede" />
    <text x="670" y="65" font-family="Arial" font-size="14" fill="#333" text-anchor="middle">50%</text>
    
    <!-- Stats -->
    <g transform="translate(50, 90)">
      <rect width="180" height="60" rx="10" ry="10" fill="#ecf0f3" 
            filter="drop-shadow(3px 3px 5px rgba(0,0,0,0.1)) drop-shadow(-3px -3px 5px rgba(255,255,255,0.7))" />
      <circle cx="30" cy="30" r="15" fill="#28a745" />
      <text x="60" y="25" font-family="Arial" font-size="14" fill="#333">Thành công</text>
      <text x="60" y="45" font-family="Arial" font-size="18" font-weight="bold" fill="#333">1</text>
    </g>
    
    <g transform="translate(260, 90)">
      <rect width="180" height="60" rx="10" ry="10" fill="#ecf0f3" 
            filter="drop-shadow(3px 3px 5px rgba(0,0,0,0.1)) drop-shadow(-3px -3px 5px rgba(255,255,255,0.7))" />
      <circle cx="30" cy="30" r="15" fill="#dc3545" />
      <text x="60" y="25" font-family="Arial" font-size="14" fill="#333">Thất bại</text>
      <text x="60" y="45" font-family="Arial" font-size="18" font-weight="bold" fill="#333">2</text>
    </g>
    
    <g transform="translate(470, 90)">
      <rect width="180" height="60" rx="10" ry="10" fill="#ecf0f3" 
            filter="drop-shadow(3px 3px 5px rgba(0,0,0,0.1)) drop-shadow(-3px -3px 5px rgba(255,255,255,0.7))" />
      <circle cx="30" cy="30" r="15" fill="#ffc107" />
      <text x="60" y="25" font-family="Arial" font-size="14" fill="#333">Đang xử lý</text>
      <text x="60" y="45" font-family="Arial" font-size="18" font-weight="bold" fill="#333">7</text>
    </g>
    
    <!-- Cancel button -->
    <rect x="250" y="160" width="200" height="40" rx="20" ry="20" fill="#ecf0f3" 
          filter="drop-shadow(3px 3px 5px rgba(0,0,0,0.1)) drop-shadow(-3px -3px 5px rgba(255,255,255,0.7))" />
    <text x="350" y="185" font-family="Arial" font-size="14" fill="#dc3545" text-anchor="middle">Hủy xử lý</text>
  </g>
  
  <!-- Footer -->
  <rect y="570" width="800" height="30" fill="#ecf0f3" />
  <text x="400" y="590" font-family="Arial" font-size="12" fill="#999" text-anchor="middle">© 2025 Batch Login Web Interface. All rights reserved.</text>
</svg> 